<svg version="1.1" id="Layer_1" xmlns="http://www.w3.org/2000/svg" xmlns:xlink="http://www.w3.org/1999/xlink" x="0px" y="0px"
	 viewBox="0 399.1 1211.1 172.9" enable-background="new 0 399.1 1211.1 172.9" xml:space="preserve">
<rect x="-59.6" y="315.4" display="none" fill="#EF4523" width="1388.3" height="323"/>
<path fill="none" stroke="#FFFFFF" stroke-width="3" stroke-miterlimit="10" d="M192.5,417.7c9.4-5.2,27.4-9.1,27.4,0.5"/>
<g>
	<path fill="#FFFFFF" d="M202.6,462.1c-8-6.5-12.7-14.8-12.7-25.6c0-10.8,4-19.5,12.7-26.2c8.3-6.8,19.5-9.9,32.4-9.9
		c17.6,0,33.3,5.9,46.3,17.9l-10.5,10.5c-10.2-9.3-22.2-13.9-36.1-13.9c-9.3,0-16.7,1.9-22.2,5.9c-5.6,4-8,9.3-8,16.1
		s2.8,11.7,8,15.4c5.6,3.7,13,5.9,22.2,6.5c14.2,0.9,25.3,4.6,34,11.7c9,7.1,13.6,16.1,13.6,26.6
		c0,11.1-4.3,20.1-13.6,26.9c-9.3,7.1-21.9,10.5-37.1,10.5c-20.1-0.3-34.9-4.6-45.1-12.7l10.2-12
		c8,6.5,20.1,9.9,34.9,10.2c11.7,0.3,20.7-1.9,26.9-5.9c6.2-4,9.3-9.6,9.3-17c0-6.5-3.4-12.4-9.3-16.4
		c-6.2-4.3-14.5-6.8-24.1-7.4C221.1,472,210.6,468.3,202.6,462.1z"/>
	<path fill="#FFFFFF" d="M368.4,534.6l-14.5-4.6v-4.3c-6.8,5.6-14.8,8-24.1,8c-10.8,0-19.8-3.7-26.9-11.1
		c-7.4-7.4-11.1-16.4-11.1-26.9v-57.1H306v57.1c0,6.5,2.2,12.4,7.1,17c4.6,4.6,10.5,7.1,17,7.1c6.5,0,12.4-2.2,17-7.1
		c4.6-4.6,7.1-10.2,7.1-17v-57.1h14.5L368.4,534.6L368.4,534.6z"/>
	<path fill="#FFFFFF" d="M396.2,451.9c9.3-9,20.4-13.6,33.3-13.6c13.3,0,24.4,4.6,33.7,14.2
		c9.3,9.3,14.2,20.4,14.2,33.7c0,13-4.6,24.4-14.2,33.7c-9.3,9.3-20.4,13.9-33.7,13.9c-13,0-24.1-4.6-33.3-13.6V572
		h-14.5V437.1l14.5,4.9V451.9L396.2,451.9z M406.1,509.6c6.5,6.5,14.5,9.9,23.8,9.9s17.3-3.4,23.8-9.9
		c6.5-6.5,9.9-14.5,9.9-23.8s-3.4-17-9.9-23.8c-6.5-6.5-14.5-9.9-23.8-9.9s-17.3,3.4-23.8,9.9
		c-6.5,6.5-9.9,14.5-9.9,23.8S399.6,503.1,406.1,509.6z"/>
	<path fill="#FFFFFF" d="M501.2,451.9c9.3-9,20.4-13.6,33.3-13.6c13.3,0,24.4,4.6,33.7,14.2
		c9.3,9.3,14.2,20.4,14.2,33.7c0,13-4.6,24.4-14.2,33.7c-9.3,9.3-20.4,13.9-33.7,13.9c-13,0-24.1-4.6-33.3-13.6V572
		h-14.5V437.1l14.5,4.9V451.9z M510.7,509.6c6.5,6.5,14.5,9.9,23.8,9.9c9.3,0,17.3-3.4,23.8-9.9s9.9-14.5,9.9-23.8
		s-3.4-17-9.9-23.8c-6.5-6.5-14.5-9.9-23.8-9.9c-9.3,0-17.3,3.4-23.8,9.9c-6.5,6.5-9.9,14.5-9.9,23.8
		C501.2,495.1,504.6,503.1,510.7,509.6z"/>
	<path fill="#FFFFFF" d="M593.8,404l14.5-4.9v115.5c0,1.5,0.6,2.5,1.5,3.4c0.9,1.2,1.9,1.5,3.4,1.5s2.5-0.6,3.7-1.5
		c0.3-0.3,0.6-0.9,0.9-1.5l13,6.5c-0.9,1.5-1.9,3.4-3.7,4.9c-3.7,3.7-8,5.6-13.6,5.6c-5.6,0-9.9-1.9-13.6-5.6
		c-3.7-3.7-5.6-8-5.6-13.6L593.8,404L593.8,404z"/>
	<path fill="#FFFFFF" d="M619.7,438.3h15.1l28.1,76c11.7-23.2,17.9-48.5,18.8-76h14.5c-2.2,51.9-21.3,96.3-57.1,133.7
		l-10.8-9.3c10.2-10.5,18.8-20.7,25.9-31.8L619.7,438.3z"/>
	<path fill="#FFFFFF" d="M781.9,400.3v14.5h-40.8v119.5h-14.5V414.5h-40.8v-14.2L781.9,400.3L781.9,400.3z"/>
	<path fill="#FFFFFF" d="M788.3,399.1l14.5,4.9v42.9c6.8-5.6,14.8-8,24.1-8c10.8,0,19.8,3.7,26.9,11.1
		c7.4,7.4,11.1,16.4,11.1,26.9V534h-14.5v-57.1c0-6.5-2.2-12.4-7.1-17c-4.6-4.6-10.5-7.1-17-7.1c-6.5,0-12.4,2.2-17,7.1
		c-4.6,4.6-7.1,10.5-7.1,17v57.4h-14.5V399.1L788.3,399.1L788.3,399.1z"/>
	<path fill="#FFFFFF" d="M876.4,423.8v-19.1h14.5v19.1H876.4z M890.9,438.3v95.4h-14.5v-95.4H890.9z"/>
	<path fill="#FFFFFF" d="M959.7,485.9c6.5,5.6,9.9,12.4,9.9,20.1c0,8.3-3.4,15.1-9.9,20.1c-6.5,5.2-14.8,7.7-25.6,7.4
		c-13.9-0.3-24.1-3.4-31.5-9.6l10.2-10.2c4.3,3.4,11.4,5.2,21.3,5.2c14.2,0.3,21-4.3,21-13.3c0-3.7-1.9-7.4-5.6-10.2
		c-3.7-2.8-8-4-13.3-4c-9.3,0-17-2.2-22.5-7.1c-5.6-4.6-8.6-10.8-8.6-18.8c0-8,3.4-14.5,9.9-20.1
		c6.5-5.2,14.5-7.7,23.8-7.7c12.7,0,22.2,3.1,29.3,9l-10.2,10.2c-4-3.4-10.5-4.6-18.8-4.6c-5.2,0-9.9,1.5-13.6,3.7
		c-3.7,2.5-5.6,5.6-5.6,9.6c0,7.7,5.6,11.4,17.3,11.4C945.2,477.2,953.2,480.3,959.7,485.9z"/>
	<path fill="#FFFFFF" d="M1003.3,523.5c-6.8-7-10.2-15.2-10.2-24.7s3.4-17.9,10.2-24.7c6.8-6.8,15.2-10.4,24.7-10.4
		c7.9,0,15,2.5,21.1,7l-7.7,7.7c-4.1-2.7-8.4-4.1-13.6-4.1c-6.8,0-12.7,2.5-17.4,7.3c-4.8,4.8-7.3,10.6-7.3,17.4
		c0,6.8,2.5,12.7,7.3,17.4s10.6,7.3,17.4,7.3c5.2,0,9.5-1.4,13.6-4.1l7.7,7.7c-5.9,4.5-13.1,7-21.1,7
		C1018.5,533.7,1010.4,530.3,1003.3,523.5z"/>
	<path fill="#FFFFFF" d="M1105,523.5c-6.8,6.8-15,10.2-24.7,10.2c-9.5,0-17.7-3.4-24.7-10.2c-6.8-7-10.2-15.2-10.2-24.7
		s3.4-17.9,10.2-24.7c6.8-6.8,15.2-10.4,24.7-10.4c9.7,0,17.9,3.4,24.7,10.4c6.8,6.8,10.4,15,10.4,24.7
		C1115.2,508.4,1111.8,516.7,1105,523.5z M1062.9,481.4c-4.8,4.8-7.3,10.6-7.3,17.4s2.5,12.7,7.3,17.4
		c4.8,4.8,10.6,7.3,17.4,7.3c6.8,0,12.7-2.5,17.4-7.3s7.3-10.6,7.3-17.4s-2.5-12.5-7.3-17.4c-4.8-4.8-10.6-7.3-17.4-7.3
		C1073.5,474.1,1067.6,476.6,1062.9,481.4z"/>
	<path fill="#FFFFFF" d="M1123,463l10.6,3.6v1.6c4.1-2.7,8.8-4.3,14-4.3c7.5,0,13.1,2.5,17.4,7.3l1.8,2.3
		c0.7-0.9,1.4-1.6,2-2.3c4.8-4.8,10.6-7.3,17.4-7.3c6.8,0,12.5,2.5,17.4,7.3c4.8,4.8,7.3,10.6,7.3,17.4v45.5h-10.6
		v-45.8c0-3.9-1.4-7.3-4.1-9.7c-2.7-2.7-5.9-4.1-9.7-4.1c-3.9,0-7.3,1.4-10,4.1c-2.7,2.7-4.1,5.9-4.1,9.7V534h-11.1
		v-45.5c0-3.9-1.4-7.3-4.1-9.7c-2.7-2.7-5.9-4.1-9.7-4.1s-7.3,1.4-10,4.1c-2.7,2.7-4.1,5.9-4.1,9.7V534H1123V463
		L1123,463z"/>
</g>
<g>
	<path fill="none" stroke="#FFFFFF" stroke-width="3" stroke-miterlimit="10" d="M162.1,445.4c0,3.1,4.6,6.8,8.3,4.6"/>
	<path fill="none" stroke="#FFFFFF" stroke-width="3" stroke-miterlimit="10" d="M170.5,450c9-3.1,7.4-24.4,22.2-32.4"/>
	<path fill="#FFFFFF" d="M89.2,455.3c-19.8,0-35.5,15.7-35.5,35.5c0,19.8,15.7,35.5,35.5,35.5s35.5-15.7,35.5-35.5
		C124.8,471.3,109,455.3,89.2,455.3z M115.5,497.3H96.7v17.6c0,1.9-0.6,3.4-1.9,4.6c-1.5,1.5-3.4,2.2-4.9,2.2
		c-2.2,0-3.7-0.6-4.9-2.2c-1.5-1.5-2.2-3.1-2.2-4.6v-17.6H63.9c-1.9,0-3.4-0.6-4.6-1.9c-1.2-1.2-1.9-2.5-1.9-4.3
		c0-1.9,0.6-3.1,1.9-4.3c1.5-1.5,3.1-1.9,4.6-1.9h18.8V467c0-1.9,0.6-3.4,2.2-4.6c1.5-1.5,3.1-2.2,4.9-2.2c2.2,0,3.7,0.6,4.9,2.2
		c1.5,1.5,1.9,3.1,1.9,4.6v17.9h18.8c1.9,0,3.4,0.6,4.6,1.9c1.2,1.2,1.9,2.5,1.9,4.3c0,1.9-0.6,3.4-1.9,4.3
		C118.9,496.7,117.3,497.3,115.5,497.3z"/>
</g>
<path fill="#FFFFFF" d="M124.8,414.5L0,485.9l48.2,84.3l124.1-71l1.2-57.4L124.8,414.5z M109.9,526c-19.8,11.1-44.8,4.6-56.2-15.1
	s-4.6-44.8,15.1-56.2c19.8-11.1,44.8-4.6,56.2,15.1C136.5,489.6,129.7,514.9,109.9,526z M164.3,452.5c-2.2,1.9-5.9,1.9-7.7-0.6
	c-2.2-2.2-1.9-5.9,0.6-7.7c2.2-1.9,5.9-1.9,7.7,0.6C166.7,446.9,166.4,450.3,164.3,452.5z"/>
<circle fill="#FFFFFF" cx="983.3" cy="527.9" r="5.8"/>
<path fill="none" stroke="#939393" stroke-width="2.923" stroke-miterlimit="10" d="M631.2,565.8"/>
<path fill="#115D78" stroke="#939393" stroke-width="4" stroke-miterlimit="10" d="M205,414.5"/>
<path fill="none" stroke="#FFFFFF" stroke-width="3" stroke-miterlimit="10" d="M162.1,445.7c0-8.6,13-15.7,28.1-14.8"/>
<path fill="none" stroke="#FFFFFF" stroke-width="3" stroke-miterlimit="10" d="M189.6,430.9c22.5,1.2,30.3-3.7,30.3-12.7"/>
</svg>
